<?xml version="1.0" encoding="utf-8"?>
<!-- Generator: Adobe Illustrator 23.0.3, SVG Export Plug-In . SVG Version: 6.00 Build 0)  -->
<svg version="1.1" id="Capa_1" xmlns="http://www.w3.org/2000/svg" xmlns:xlink="http://www.w3.org/1999/xlink" x="0px" y="0px"
	 viewBox="0 0 264.5 294.7" style="enable-background:new 0 0 264.5 294.7;" xml:space="preserve">
<style type="text/css">
	.st0{fill:#F4AC11;stroke:#FFFFFF;stroke-width:5.8031;stroke-miterlimit:10;}
	.st1{fill:#F26414;stroke:#FFFFFF;stroke-width:4.8439;stroke-miterlimit:10;}
	.st2{fill:#0E8F89;stroke:#FFFFFF;stroke-width:4.4582;stroke-miterlimit:10;}
	.st3{fill:#31575E;stroke:#FFFFFF;stroke-width:4.4582;stroke-miterlimit:10;}
	.st4{fill:none;stroke:#FFFFFF;stroke-width:1.6932;stroke-miterlimit:10;}
	.st5{fill:none;stroke:#FFFFFF;stroke-width:1.4211;stroke-miterlimit:10;}
</style>
<g>
	<path class="st0" d="M256.9,130.6c3.7-21.6-2.9-42.7-16.3-58c0,0-10.4,17.7-23.4,11.3c-10.8-5.4-7.5-20.7,0.1-32.5
		c13.3-20.5-11-42.1-11-42.1s-3.4,22.5-22.1,28.1c-16,4.8-22.8,20.1-18,33.2c4.5,12.1-3.4,17.7-9.8,19.1
		c-16.2,3.5-21.8-16.8-21.8-16.8c-8.2,9.4-13.9,21-16.2,34.2c-6.4,37.4,18.1,73,55.1,80.5c0.9,0.2,1.9,0.4,2.9,0.5
		C214.4,194.2,250.4,168.6,256.9,130.6z M179.4,188.3c-0.8,0-1.5-0.1-2.3-0.2C177.8,188.2,178.6,188.3,179.4,188.3z"/>
	<polygon class="st0" points="240.5,72.6 240.5,72.6 240.5,72.6 	"/>
</g>
<g>
	<path class="st1" d="M221.9,143.2c2.1-12.2-1.7-24-9.2-32.6c0,0-5.9,10-13.1,6.3c-6.1-3-4.2-11.6,0.1-18.3
		c7.5-11.5-6.2-23.6-6.2-23.6s-1.9,12.6-12.4,15.8c-9,2.7-12.8,11.3-10.1,18.6c2.5,6.8-1.9,9.9-5.5,10.7c-9.1,2-12.2-9.4-12.2-9.4
		c-4.6,5.3-7.8,11.8-9.1,19.2c-3.6,21,10.2,41,30.9,45.3c0.5,0.1,1.1,0.2,1.6,0.3C198.1,179,218.3,164.6,221.9,143.2z M178.4,175.7
		c-0.4,0-0.9-0.1-1.3-0.1C177.5,175.6,177.9,175.7,178.4,175.7z"/>
	<polygon class="st1" points="212.7,110.6 212.7,110.6 212.7,110.6 	"/>
	<polygon class="st1" points="212.7,110.6 212.7,110.6 212.7,110.6 	"/>
</g>
<g>
	<path class="st2" d="M209.5,256.7L46.4,287c-5.6,1-11-2.7-12-8.2L14.1,169.1c-1-5.6,2.7-11,8.2-12l163.1-30.3c5.6-1,11,2.7,12,8.2
		l20.4,109.7C218.8,250.3,215.1,255.7,209.5,256.7z"/>
	<path class="st3" d="M185.4,126.8L22.3,157.1c-5.6,1-9.3,6.4-8.2,12l3,16.3l183.3-34l-3-16.3C196.4,129.5,191,125.8,185.4,126.8z"
		/>
	<line class="st4" x1="17.5" y1="187.4" x2="36" y2="287.4"/>
	<line class="st4" x1="43.7" y1="182.5" x2="62.2" y2="282.5"/>
	<line class="st4" x1="69.9" y1="177.6" x2="88.4" y2="277.7"/>
	<line class="st4" x1="96.1" y1="172.8" x2="114.6" y2="272.8"/>
	<line class="st4" x1="148.4" y1="163.1" x2="167" y2="263.1"/>
	<line class="st4" x1="122.3" y1="167.9" x2="140.8" y2="268"/>
	<line class="st4" x1="200.5" y1="151.4" x2="219" y2="251.4"/>
	<line class="st4" x1="174.3" y1="156.2" x2="192.8" y2="256.3"/>
	<line class="st5" x1="18.5" y1="185.1" x2="198.9" y2="151.7"/>
	<line class="st5" x1="22.2" y1="205.2" x2="202.6" y2="171.7"/>
	<line class="st5" x1="25.9" y1="225.2" x2="206.3" y2="191.7"/>
	<line class="st5" x1="29.6" y1="245.2" x2="210" y2="211.7"/>
	<line class="st5" x1="33.3" y1="265.2" x2="213.8" y2="231.7"/>
	<line class="st5" x1="40.7" y1="284.5" x2="221.1" y2="251"/>
</g>
</svg>
