<?xml version="1.0" encoding="utf-8"?>
<!-- Generator: Adobe Illustrator 23.0.3, SVG Export Plug-In . SVG Version: 6.00 Build 0)  -->
<svg version="1.1" id="Layer_1" xmlns="http://www.w3.org/2000/svg" xmlns:xlink="http://www.w3.org/1999/xlink" x="0px" y="0px"
	 viewBox="0 0 130.95 257.6" style="enable-background:new 0 0 130.95 257.6;" xml:space="preserve">
<style type="text/css">
	.st0{fill:#CB0538;}
	.st1{fill:#FED500;}
	.st2{fill:#60B564;}
	.st3{fill:#F59C00;}
	.st4{fill:none;stroke:#000000;stroke-width:5;stroke-miterlimit:10;}
	.st5{fill:none;stroke:#000000;stroke-width:2;stroke-miterlimit:10;}
	.st6{fill:none;stroke:#000000;stroke-width:2.8091;stroke-miterlimit:10;}
	.st7{fill:none;stroke:#FFFFFF;stroke-width:2;stroke-miterlimit:10;}
</style>
<circle class="st0" cx="65.48" cy="43.25" r="20.88"/>
<circle class="st1" cx="65.48" cy="158.93" r="20.88"/>
<circle class="st2" cx="65.48" cy="219.2" r="20.88"/>
<circle class="st3" cx="65.48" cy="100.51" r="20.88"/>
<g>
	<path class="st4" d="M97.77,3.61H33.18c-4.51,0-8.16,3.65-8.16,8.16v234.07c0,4.51,3.65,8.16,8.16,8.16h64.58
		c4.51,0,8.16-3.65,8.16-8.16V11.76C105.93,7.26,102.27,3.61,97.77,3.61z"/>
	<path class="st4" d="M3.1,16.42c0,12.11,9.82,21.93,21.93,21.93V16.42H3.1z"/>
	<path class="st4" d="M127.85,16.42c0,12.11-9.82,21.93-21.93,21.93V16.42H127.85z"/>
	<circle class="st5" cx="65.48" cy="43.25" r="20.88"/>
	<path class="st6" d="M94.39,38.34"/>
	<path class="st6" d="M36.57,38.34"/>
	<path class="st5" d="M94.39,38.34C92.05,24.48,80,13.92,65.48,13.92S38.9,24.48,36.57,38.34"/>
	<path class="st4" d="M3.1,132.1c0,12.11,9.82,21.93,21.93,21.93V132.1H3.1z"/>
	<path class="st4" d="M127.85,132.1c0,12.11-9.82,21.93-21.93,21.93V132.1H127.85z"/>
	<circle class="st5" cx="65.48" cy="158.93" r="20.88"/>
	<path class="st6" d="M94.39,154.03"/>
	<path class="st6" d="M36.57,154.03"/>
	<path class="st5" d="M94.39,154.03c-2.33-13.86-14.39-24.42-28.91-24.42s-26.58,10.56-28.91,24.42"/>
	<path class="st4" d="M3.1,192.37c0,12.11,9.82,21.93,21.93,21.93v-21.93H3.1z"/>
	<path class="st4" d="M127.85,192.37c0,12.11-9.82,21.93-21.93,21.93v-21.93H127.85z"/>
	<circle class="st5" cx="65.48" cy="219.2" r="20.88"/>
	<path class="st6" d="M94.39,214.3"/>
	<path class="st6" d="M36.57,214.3"/>
	<path class="st5" d="M94.39,214.3c-2.33-13.86-14.39-24.42-28.91-24.42S38.9,200.44,36.57,214.3"/>
	<path class="st4" d="M3.1,73.68c0,12.11,9.82,21.93,21.93,21.93V73.68H3.1z"/>
	<path class="st4" d="M127.85,73.68c0,12.11-9.82,21.93-21.93,21.93V73.68H127.85z"/>
	<circle class="st5" cx="65.48" cy="100.51" r="20.88"/>
	<path class="st6" d="M94.39,95.61"/>
	<path class="st6" d="M36.57,95.61"/>
	<path class="st5" d="M94.39,95.61C92.05,81.74,80,71.18,65.48,71.18S38.9,81.74,36.57,95.61"/>
	<path class="st7" d="M67.65,29.8c-7.98,0-14.6,5.86-15.88,13.56"/>
	<path class="st7" d="M67.65,145.49c-7.98,0-14.6,5.86-15.88,13.56"/>
	<path class="st7" d="M67.65,205.76c-7.98,0-14.6,5.86-15.88,13.56"/>
	<path class="st7" d="M67.65,87.06c-7.98,0-14.6,5.86-15.88,13.56"/>
</g>
</svg>
