<?xml version="1.0" encoding="utf-8"?>
<!-- Generator: Adobe Illustrator 23.0.3, SVG Export Plug-In . SVG Version: 6.00 Build 0)  -->
<svg version="1.1" id="Layer_1" xmlns="http://www.w3.org/2000/svg" xmlns:xlink="http://www.w3.org/1999/xlink" x="0px" y="0px"
	 viewBox="0 0 80.9 250.4" style="enable-background:new 0 0 80.9 250.4;" xml:space="preserve">
<style type="text/css">
	.st0{fill:#CB0538;}
	.st1{fill:#FED500;}
	.st2{fill:#60B564;}
	.st3{fill:#F59C00;}
	.st4{fill:none;stroke:#000000;stroke-width:2.8091;stroke-miterlimit:10;}
</style>
<path d="M72.7,0H8.2C3.6,0,0,3.7,0,8.2v234.1c0,4.5,3.6,8.2,8.2,8.2h64.6c4.5,0,8.2-3.6,8.2-8.2V8.2C80.9,3.7,77.2,0,72.7,0z"/>
<circle class="st0" cx="40.5" cy="42.1" r="20.9"/>
<circle class="st1" cx="40.5" cy="152.9" r="20.9"/>
<circle class="st2" cx="40.5" cy="208.3" r="20.9"/>
<circle class="st3" cx="40.5" cy="97.5" r="20.9"/>
<path class="st4" d="M69.4,34.7"/>
<path class="st4" d="M11.5,34.7"/>
<path class="st4" d="M69.4,150.4"/>
<path class="st4" d="M11.5,150.4"/>
<path class="st4" d="M69.4,210.7"/>
<path class="st4" d="M11.5,210.7"/>
<path class="st4" d="M69.4,92"/>
<path class="st4" d="M11.5,92"/>
</svg>
