<?xml version="1.0" encoding="utf-8"?>
<svg version="1.1" id="Layer_1" xmlns="http://www.w3.org/2000/svg" xmlns:xlink="http://www.w3.org/1999/xlink" x="0px" y="0px"
	 viewBox="0 0 11.2 10.6" style="enable-background:new 0 0 11.2 10.6;" xml:space="preserve">
<style type="text/css">
	.st2{fill:#058F89;}
	.st3{fill:#32575E;}
	.st4{fill:#F2AC1D;}
</style>
<g>
	<path class="st2" d="M8.8,5.8C8.1,4.7,6.9,4,5.6,4c0,0,0,0,0,0C5.5,3.7,5.4,3.3,5.4,2.9C5.4,1.3,6.7,0,8.3,0c1.6,0,2.9,1.3,2.9,2.9
		C11.2,4.4,10.2,5.6,8.8,5.8z"/>
	<path class="st3" d="M5.6,10.6c-0.5,0-1-0.1-1.5-0.4C2.9,9.4,2.4,7.9,2.9,6.6c0,0,0,0,0,0c1.3,0,2.5-0.7,3.1-1.8c0,0,0,0,0,0
		c0.4,0.1,0.7,0.2,1,0.4c1.4,0.8,1.9,2.6,1.1,4C7.6,10,6.7,10.6,5.6,10.6C5.6,10.6,5.6,10.6,5.6,10.6z"/>
	<path class="st4" d="M2.9,5.9c-1,0-2-0.6-2.5-1.5c-0.8-1.4-0.3-3.2,1.1-4C1.9,0.1,2.4,0,2.9,0c0.9,0,1.7,0.4,2.3,1.1
		c-0.7,1.1-0.7,2.5,0,3.7l0,0C5,5,4.7,5.3,4.4,5.5C3.9,5.7,3.4,5.9,2.9,5.9C2.9,5.9,2.9,5.9,2.9,5.9z"/>
</g>
</svg>
