<?xml version="1.0" encoding="utf-8"?>
<!-- Generator: Adobe Illustrator 23.0.3, SVG Export Plug-In . SVG Version: 6.00 Build 0)  -->
<svg version="1.1" id="Layer_1" xmlns="http://www.w3.org/2000/svg" xmlns:xlink="http://www.w3.org/1999/xlink" x="0px" y="0px"
	 viewBox="0 0 36.5 35.3" style="enable-background:new 0 0 36.5 35.3;" xml:space="preserve">
<style type="text/css">
	.st0{fill:#010101;}
</style>
<g id="Outline">
	<path class="st0" d="M28.7,6.5h-1.8v1.2h1.8c3.2,0,5.9,2.6,5.9,5.9v5.9h1.2v-5.9C35.8,9.6,32.6,6.5,28.7,6.5z"/>
	<path class="st0" d="M34.6,23H19.3v-9.4c0-1.9-0.7-3.7-2.1-5c-0.3-0.3-0.7-0.6-1.1-0.9h8.5v6.5c-1.3,0.3-2,1.6-1.7,2.9
		s1.6,2,2.9,1.7c1.3-0.3,2-1.6,1.7-2.9c-0.2-0.8-0.9-1.5-1.7-1.7V4.7h4.1c0.3,0,0.6-0.3,0.6-0.6V0.6c0-0.3-0.3-0.6-0.6-0.6h-4.7
		c-0.3,0-0.6,0.3-0.6,0.6v5.9H12.2c-1.8,0-3.5,0.7-4.8,1.9l0.8,0.9c2.3-2.2,5.9-2.1,8.2,0.1c0.2,0.2,0.4,0.4,0.5,0.6H1
		c-0.3,0-0.6,0.3-0.6,0.6v15.3c0,0.3,0.3,0.6,0.6,0.6h14.1v8.2c0,0.3,0.3,0.6,0.6,0.6h4.7c0.3,0,0.6-0.3,0.6-0.6v-7.1h-1.2v6.5h-3.5
		v-7.7h18.8c0.3,0,0.6-0.3,0.6-0.6v-5.3h-1.2V23z M26.4,16.5c0,0.7-0.5,1.2-1.2,1.2c-0.7,0-1.2-0.5-1.2-1.2c0-0.7,0.5-1.2,1.2-1.2
		C25.8,15.3,26.4,15.8,26.4,16.5z M29.3,3.5h-3.5V1.2h3.5V3.5z M7.1,16l-5.5,6V11.8L7.1,16z M8,16.7l2.7,2c0.2,0.2,0.5,0.2,0.7,0
		l2.7-2l4,4.5V23H2.4L8,16.7z M15,16l3.1-2.4v5.8L15,16z M18,12.2l-6.9,5.3l-8.3-6.3h14.8C17.8,11.5,17.9,11.9,18,12.2z M1.6,24.1
		h16.5v1.2H1.6V24.1z M34.6,25.3H19.3v-1.2h15.3V25.3z"/>
	<rect x="20.5" y="20.6" class="st0" width="1.2" height="1.2"/>
	<path class="st0" d="M23.4,2.4V1.2c-2.3,0-4.1,1.8-4.1,4.1h1.2C20.5,3.7,21.8,2.4,23.4,2.4z"/>
</g>
</svg>
