<?xml version="1.0" encoding="utf-8"?>
<!-- Generator: Adobe Illustrator 23.0.3, SVG Export Plug-In . SVG Version: 6.00 Build 0)  -->
<svg version="1.1" id="Layer_1" xmlns="http://www.w3.org/2000/svg" xmlns:xlink="http://www.w3.org/1999/xlink" x="0px" y="0px"
	 viewBox="0 0 36.3 35.3" style="enable-background:new 0 0 36.3 35.3;" xml:space="preserve">
<style type="text/css">
	.st0{fill:#010101;}
</style>
<g>
	<path class="st0" d="M32.5,9.3c-0.3,0-0.5,0.2-0.5,0.5v23.1l-2.2-0.6c-4-1-8.2-0.9-12,0.5V31c3.2-1.2,6.7-1.4,10-0.5l2.5,0.7
		c0,0,0.1,0,0.1,0c0.1,0,0.2,0,0.3-0.1c0.1-0.1,0.2-0.3,0.2-0.4v-8c0-0.3-0.2-0.5-0.5-0.5c-0.3,0-0.5,0.2-0.5,0.5v7.4l-1.8-0.5
		c-3.4-0.9-7-0.7-10.3,0.4V7.8c3.2-1.2,6.7-1.4,10-0.5l2.1,0.6v12.6c0,0.3,0.2,0.5,0.5,0.5c0.3,0,0.5-0.2,0.5-0.5v-13
		c0-0.2-0.2-0.5-0.4-0.5l-2.5-0.6c-3.6-0.9-7.4-0.7-10.8,0.6C13.8,5.5,10,5.3,6.4,6.3L3.9,6.9C3.7,7,3.5,7.2,3.5,7.5v6.1
		c0,0.3,0.2,0.5,0.5,0.5c0.3,0,0.5-0.2,0.5-0.5V7.8l2.1-0.6c3.3-0.9,6.8-0.7,10,0.5v22.1c-3.3-1.2-6.9-1.3-10.3-0.4l-1.8,0.5V15.7
		c0-0.3-0.2-0.5-0.5-0.5c-0.3,0-0.5,0.2-0.5,0.5v14.9c0,0.2,0.1,0.3,0.2,0.4c0.1,0.1,0.2,0.1,0.3,0.1c0,0,0.1,0,0.1,0l2.5-0.7
		c3.3-0.9,6.8-0.7,10,0.5v1.9c-3.9-1.4-8-1.6-12-0.5l-2.2,0.6V9.8c0-0.3-0.2-0.5-0.5-0.5S1.4,9.5,1.4,9.8v23.8
		c0,0.2,0.1,0.3,0.2,0.4c0.1,0.1,0.3,0.1,0.5,0.1L5,33.4c4-1,8.2-0.8,12,0.7l0.1,0c0.1,0,0.3,0,0.4,0l0.1,0c3.8-1.5,8-1.8,12-0.7
		l2.9,0.8c0,0,0.1,0,0.1,0c0.3,0,0.5-0.2,0.5-0.5V9.8C33.1,9.5,32.8,9.3,32.5,9.3z"/>
	<path class="st0" d="M28.8,9.9c0-0.2-0.1-0.4-0.4-0.5L27.3,9c-1.1-0.4-2.2-0.4-3.3-0.2c-0.2,0.1-0.4,0.3-0.4,0.5v4.7
		c0,0.2,0.1,0.3,0.2,0.4c0.1,0.1,0.3,0.1,0.5,0.1c0.9-0.2,1.9-0.1,2.8,0.1l1.1,0.4c0.1,0,0.1,0,0.2,0c0.1,0,0.2,0,0.3-0.1
		c0.1-0.1,0.2-0.3,0.2-0.4V9.9z M27.8,13.9l-0.4-0.1c-0.6-0.2-1.3-0.3-2-0.3c-0.2,0-0.5,0-0.7,0V9.8c0.8-0.1,1.6,0,2.4,0.2l0.8,0.3
		V13.9z"/>
	<path class="st0" d="M14.7,18.9c-2.5-0.7-5.2-0.7-7.7,0c-0.3,0.1-0.5,0.4-0.4,0.7c0.1,0.3,0.4,0.5,0.7,0.4c2.3-0.7,4.8-0.7,7.1,0
		c0,0,0.1,0,0.1,0c0.3,0,0.6-0.2,0.6-0.5C15.2,19.2,15,18.9,14.7,18.9z"/>
	<path class="st0" d="M14.7,21.5c-2.5-0.7-5.2-0.7-7.7,0c-0.3,0.1-0.5,0.4-0.4,0.7c0.1,0.3,0.4,0.5,0.7,0.4c2.3-0.7,4.8-0.7,7.1,0
		c0,0,0.1,0,0.1,0c0.3,0,0.6-0.2,0.6-0.5C15.2,21.8,15,21.5,14.7,21.5z"/>
	<path class="st0" d="M14.7,24.1c-2.5-0.7-5.2-0.7-7.7,0c-0.3,0.1-0.5,0.4-0.4,0.7c0.1,0.3,0.4,0.5,0.7,0.4c2.3-0.7,4.8-0.7,7.1,0
		c0,0,0.1,0,0.1,0c0.3,0,0.6-0.2,0.6-0.5C15.2,24.4,15,24.2,14.7,24.1z"/>
	<path class="st0" d="M19.3,10.9h0.1l2.1-0.5c0.3-0.1,0.5-0.4,0.4-0.7c-0.1-0.3-0.4-0.5-0.7-0.4l-2.1,0.5c-0.3,0-0.5,0.3-0.5,0.6
		C18.8,10.8,19.1,11,19.3,10.9z"/>
	<path class="st0" d="M18.8,12.7c0.1,0.3,0.4,0.5,0.6,0.4l2.1-0.5c0.3-0.1,0.5-0.4,0.4-0.6c-0.1-0.3-0.4-0.5-0.6-0.4L19.2,12
		c-0.1,0-0.3,0.1-0.3,0.2C18.8,12.4,18.8,12.5,18.8,12.7z"/>
	<path class="st0" d="M18.8,15.3c0.1,0.3,0.4,0.5,0.6,0.4l2.1-0.5c0.3-0.1,0.5-0.4,0.4-0.6c-0.1-0.3-0.4-0.5-0.6-0.4l-2.1,0.5
		c-0.1,0-0.3,0.1-0.3,0.2C18.8,15,18.8,15.2,18.8,15.3z"/>
	<path class="st0" d="M19.6,28.2c0.1,0.1,0.2,0.1,0.3,0.1c0.1,0,0.1,0,0.2,0l1.1-0.4c0.9-0.3,1.9-0.4,2.8-0.2c0.2,0,0.3,0,0.4-0.1
		c0.1-0.1,0.2-0.3,0.2-0.4v-4.7c0-0.3-0.2-0.5-0.4-0.5c-1.1-0.2-2.3-0.2-3.3,0.2l-1.1,0.4c-0.2,0.1-0.4,0.3-0.4,0.5v4.7
		C19.3,28,19.4,28.1,19.6,28.2z M20.4,23.5l0.8-0.3c0.8-0.2,1.6-0.3,2.4-0.2v3.7c-0.9-0.1-1.8,0-2.7,0.3l-0.4,0.1V23.5z"/>
	<path class="st0" d="M19.3,17.9c0.1,0.3,0.4,0.4,0.6,0.4c2.3-0.7,4.8-0.7,7.1,0c0.1,0,0.1,0,0.2,0c0.3,0,0.6-0.2,0.6-0.5
		c0-0.3-0.2-0.6-0.5-0.6c-2.5-0.7-5.2-0.7-7.7,0c-0.1,0-0.3,0.1-0.3,0.3C19.3,17.7,19.3,17.8,19.3,17.9z"/>
	<path class="st0" d="M27.3,21c0.3,0,0.6-0.2,0.6-0.5c0-0.3-0.2-0.6-0.5-0.6c-2.5-0.7-5.2-0.7-7.7,0c-0.3,0.1-0.5,0.4-0.4,0.7
		c0.1,0.3,0.4,0.5,0.7,0.4c2.3-0.7,4.8-0.7,7.1,0C27.2,21,27.2,21,27.3,21z"/>
	<path class="st0" d="M26.1,23.6l2.1,0.5c0.1,0,0.3,0,0.4-0.1c0.1-0.1,0.2-0.2,0.2-0.3c0-0.1,0-0.3-0.1-0.4
		c-0.1-0.1-0.2-0.2-0.3-0.2l-2.1-0.5c-0.3-0.1-0.6,0.1-0.7,0.4C25.6,23.2,25.8,23.5,26.1,23.6z"/>
	<path class="st0" d="M14.6,12.5c0.3,0,0.5-0.2,0.5-0.5v-1.6c0-0.2-0.2-0.5-0.4-0.5c-2.5-0.7-5.2-0.7-7.7,0
		c-0.2,0.1-0.4,0.3-0.4,0.5v6.3c0,0.2,0.1,0.3,0.2,0.4c0.1,0.1,0.3,0.1,0.5,0.1c2.3-0.7,4.8-0.7,7.1,0c0,0,0.1,0,0.1,0
		c0.3,0,0.5-0.2,0.5-0.5v-2.6c0-0.3-0.2-0.5-0.5-0.5c-0.3,0-0.5,0.2-0.5,0.5v2c-2.1-0.5-4.2-0.5-6.3,0v-5.2c2.1-0.5,4.3-0.5,6.3,0
		V12C14.1,12.3,14.3,12.5,14.6,12.5z"/>
</g>
</svg>
