<svg xmlns="http://www.w3.org/2000/svg" viewBox="0 0 547.34 404.8"><defs><style>.cls-1{fill:#fff;}.cls-2{fill:gray;}.cls-3,.cls-4,.cls-5{fill:none;stroke:#000;stroke-miterlimit:10;}.cls-3{stroke-width:6.53px;}.cls-4{stroke-width:7.44px;}.cls-5{stroke-width:6.26px;}</style></defs><title>kirchen</title><g id="Layer_1" data-name="Layer 1"><path class="cls-1" d="M515.35,332.57l.61.09C516.31,332.69,516.3,332.67,515.35,332.57Z"/><path class="cls-1" d="M530.44,347.66c-.08-8.55-6.56-14-14.48-15-.25,0-.69-.09-1.1-.17-.93-.19-1.85-.39-2.76-.62a16.38,16.38,0,0,0-2.49-3.49,24.83,24.83,0,0,0-17-8c-1.52-1-3-2.08-4.47-3.15-5.79-4.24-11.37-8-18.1-10.63-8.12-3.17-17.3-3.14-25.9-3.5s-17.45-.72-26.17-1c-34.91-1.25-69.83-2-104.76-1.89-35.22.11-70.45,1.09-105.61,3.32-1.95.12-3.9.25-5.82.45.12-1.72.25-3.44.39-5.15a12.22,12.22,0,0,0-1.78-7.1c.15-.92.26-1.87.32-2.82,1.23-19-2.76-37.94-1.38-57,.07-1,.18-2.06.27-3.08a.74.74,0,0,1,0-.14c.61-2.54,1.11-5.12,1.72-7.66,1.79-7.46,1.7-14.5-1.17-21a62.6,62.6,0,0,0-1.86-13.54c-.56-2.57-1.06-5.17-1.5-7.77l-.06-.34a59.13,59.13,0,0,0,2.28-13.23c.76-10.81.94-21.68,1.4-32.5a19,19,0,0,0-.44-4.8c4.68-8.88,3.94-21.39-3.94-28-12.09-10.17-25-19.06-39.32-25.76l-.41-.18-.68-.75c-4.6-5.15-9-10.48-13.5-15.72-4.78-5.58-12.88-7.41-19.8-6.48-7.55,1-13,4.95-17.22,11.25-.5.75-2.68,4.92-3.52,5q3.21-4.11.83-1.17c-.65.78-1.32,1.56-2,2.32A96.81,96.81,0,0,1,92.94,76c-.75.67-3.72,4-4.69,3.94l2.33-1.82q-1.23.9-2.49,1.77-2.34,1.6-4.77,3.06A33.46,33.46,0,0,0,69.71,93.86C59.52,96.44,51,105.74,51.46,116.72A26,26,0,0,0,55.2,129a22,22,0,0,0-1.4,8.17q.15,7.75.29,15.52A24.28,24.28,0,0,0,55.71,161a229,229,0,0,1-1.21,31.41c-.1.92-.23,1.83-.32,2.75l-.11.91q.75-5.47-.06.53a36.8,36.8,0,0,0-.39,7A41.84,41.84,0,0,0,52,209.41c-2.22,11.27.19,22.11.27,33.42.08,9.74-.7,19.47-1.12,29.2-.22,4.86-.36,9.73-.27,14.6a43.91,43.91,0,0,0,1.3,10.06A15,15,0,0,0,50,300.24a15.2,15.2,0,0,0,3.12,16.49,10.08,10.08,0,0,0,.94,1h0a786.13,786.13,0,0,0,.58,95.86c.51,7.55,5.35,13.78,13.08,14.82a15,15,0,0,0,14.89-7.14,14.51,14.51,0,0,0,12,6.3q48,.38,96.09-.29a15.73,15.73,0,0,0,5.35-.95c3.83.06,7.67,0,11.5-.1,8.36-.13,16.71-.37,25.07-.67,16.09-.6,32.18-1.45,48.26-2.35,32.77-1.83,65.54-3.83,98.37-4.09s65.74,2.16,98.64,2.9c9,.2,18,.26,27,.06,5.07-.11,10.48.16,15.22-1.84,7-3,10.43-9.64,10.74-17.05C531.68,384.78,530.59,366.09,530.44,347.66Zm-59.65,21.41-.25.21a1.34,1.34,0,0,1-.56.21h-.06c.26-.16.59-.36.8-.47Zm-3.45.25c1.33.08.69.07,0,0ZM191.09,223.73c-.21.36-.43.71-.67,1.06C190.65,224.43,190.86,224.08,191.09,223.73ZM206,322.05h0Zm-5.3,12.12a9,9,0,0,0,1-.05C201.19,334.32,200.76,334.41,200.68,334.17ZM205.94,322c-.85-.22-.7-.94,0,0Z"/><polygon class="cls-2" points="126.78 75.17 135.56 84.59 126.78 94.87 114.59 84.31 126.78 75.17"/><polygon class="cls-2" points="75.54 296.12 82.75 163.09 74.21 173.53 75.54 296.12"/><polygon class="cls-2" points="114.94 257.78 115.03 256.52 124.38 131.42 115.03 144.5 114.94 257.78"/><polygon class="cls-2" points="154.62 254.94 164.36 160.24 156.52 167.53 154.62 254.94"/><path class="cls-2" d="M200.92,334.06c9.42-16.12,43.58-27,86.34-28.9s-87.65-4.43-87.65-4.43Z"/><path class="cls-2" d="M58.4,115.37s47.74-51.15,73.36-52.1c17.27-.64,22.4,7.28,22.4,7.28L126,47,47.56,111.47l14.61,4.35L71.89,117"/><polyline class="cls-3" points="74.21 117.37 43.8 113.75 125.02 46.95 207.75 112.49 179.23 114.18"/><line class="cls-3" x1="51.39" y1="415.32" x2="53.66" y2="113.75"/><line class="cls-3" x1="200.92" y1="415.32" x2="198.14" y2="113.75"/><path class="cls-4" d="M116.72,300.48,115,147.15s-.7-15.81,10.77-15.81c9.13,0,9.79,14.63,9.79,14.63V302.76"/><path class="cls-4" d="M74.21,305.16l1.14-127.31S74,161.07,85.47,161.07c9.13,0,10.88,15.68,10.88,15.68l-.76,124.62"/><path class="cls-4" d="M154.64,302.76V177.85s-.89-16,10.58-16c9.13,0,8.88,15.13,8.88,15.13l-1.59,129.57"/><polyline class="cls-5" points="199.91 303.26 463.56 303.26 525.29 337.17 525.29 406.5"/><line class="cls-5" x1="212.74" y1="337.67" x2="504.35" y2="337.67"/><line class="cls-3" x1="324.65" y1="348.3" x2="324.65" y2="416.24"/><polyline class="cls-3" points="225.27 406.5 227.29 355.89 296.62 354.88 296.62 406.5"/><line class="cls-4" x1="128.86" y1="324.39" x2="128.86" y2="420.03"/><line class="cls-4" x1="106.5" y1="344.13" x2="151.23" y2="344.13"/><polyline class="cls-4" points="245.57 382.24 256.67 382.24 254.87 388.72"/><polyline class="cls-4" points="267.3 387.01 267.3 379.9 283.69 379.75"/><path class="cls-3" d="M124.93,75.17c8.41-.12,9.53,5.91,9.75,8.4.53,5.69-4.18,10.45-8.63,10.45s-10-3.11-10-9.47C116,75.86,124.93,75.17,124.93,75.17Z"/></g></svg>