<svg xmlns="http://www.w3.org/2000/svg" viewBox="0 0 483.63 431.42"><defs><style>.cls-1{fill:#fff;}.cls-2{fill:gray;}.cls-3{fill:none;stroke:#000;stroke-miterlimit:10;stroke-width:6.53px;}</style></defs><title>kirchen</title><g id="Layer_1" data-name="Layer 1"><path class="cls-1" d="M451.6,404.65c-.44-9.55-1.54-19.07-2.46-28.59q-2.91-30-5.81-60a4.88,4.88,0,0,1,2-4.59c-.41-2.44-.77-4.9-1-7.39-1-11.12-1.53-22.2-2.45-33.27a64.17,64.17,0,0,1-1.34-13.11c-.29-2.3-.61-4.6-1-6.9a6.18,6.18,0,0,1,2.34-6c1.18-4.46,3.41-8.91,3.75-13.34.4-5.08-4.44-9.08-8.17-11.71-2.56-1.81-4-5.31-2.15-8.21,9.85-15.46-4.56-31.2-15.81-40.73a6.11,6.11,0,0,1-.63-.61,17.47,17.47,0,0,1-1.67-.59,217.87,217.87,0,0,0-63.43-16.15c-11.89-1.15-23.9-.87-35.68-3-9.66-1.78-20.37-7.61-30.36-6.13-8,1.18-13.63-3-14.56-11.09-2.45-21.34.23-44.21,4.86-65.11a80.63,80.63,0,0,1,4.05-13.18c.78-1.92,1.66-4.42,2.74-6.78q-.44-.49-.9-1c-3.91-.22-7.84-.4-11.76-.5a406.52,406.52,0,0,0-58.47,2.63c-4.79.56-9.57,1.24-14.34,2-1.7.28-5.93,1.56-8.12,1.84,0,.65,0,1.15,0,1a29.4,29.4,0,0,0,.61,4.75c.86,4.29,2.14,8.49,3.3,12.71,2.64.53,4.91,2.53,4.62,5.7-.12,1.34-.25,2.67-.37,4a6.49,6.49,0,0,1-1,3c-.15.66-.3,1.32-.47,2,.53,4.61.78,9.27.85,14,.13,9.29,1.77,18.08,3.73,27.14,1.8,8.26-5.34,16.79-14.14,14.14a6.09,6.09,0,0,0-2.78-.51,12.81,12.81,0,0,1-1.37.17c-5.61,3.46-13.21,4.16-19.85,4-4.36-.09-8.82-.53-13.17,0-3.81.45-7.47,1.88-11.1,3.06-8.31,2.69-16.93,3.71-25.38,5.78s-16.24,6.13-24.93,7.64c-3.92.68-8.06,1.47-12.22,1.87l-1.51.56a4.89,4.89,0,0,1-3.07,4q-4.2,1.94-8.36,4.08c-2.35,2.19-5.4,3.05-8.14,4.6a32.62,32.62,0,0,0-6.32,4.76c-3.35,3.11-9.34,7.7-10.34,12.27a37.52,37.52,0,0,0-.35,8.28c0,1.88.07,3.28.77,4.06,6,6.65,3.19,15.13-4.1,18.75,0,2.71,0,5.42.08,8.13.1,3.13-.4,6.32,2.08,8.5,1.62,1.42,3.58,2.23,5,3.92,1.88,2.28,2,5,2.24,7.8a118.2,118.2,0,0,1-2.41,37.65c-1.46,6.2-3.25,12.42-3.78,18.79-.51,6.2.33,12.4.06,18.6s-1.81,12.17-2.56,18.28a104.54,104.54,0,0,0-.58,17.51,6,6,0,0,1,1.28,3.46,197.3,197.3,0,0,1-4.15,53.54,27,27,0,0,0,24.16,15l289.64.76,81.9.22c8.23,0,16.85-4.46,22.2-11.2C450.59,419,451.9,411.45,451.6,404.65ZM258.83,132.15l-.06-2.21c0,.49.06,1.24.08,2.29Zm56.69,109.34a2.2,2.2,0,0,1,.66.22S315.9,241.66,315.52,241.49Zm-.27-.37a2,2,0,0,1,1.3.22A4.18,4.18,0,0,1,315.25,241.12ZM381.9,371.48l.62.11h0Zm.77.15v0l.63.1Zm3.11-154.87v-.12l.36.71Z"/><path class="cls-2" d="M258.34,65.5a8.31,8.31,0,0,1,6.58,0c.5,0,1,0,1.48,0v0c0,.26.07.51.11.76a9.46,9.46,0,0,1,4.63,7.14,8.46,8.46,0,0,0,4.26,1.1l.32,0c.75-1.64,1.48-3.28,2.1-5,1.9-5.17,2.72-10.48,4.77-15.59-.07-.15-.12-.3-.2-.44-2.48-4.55-6.74-5.22-11.39-5.55a162.56,162.56,0,0,0-27.38.16c-8.63.86-17,2.3-25.69,1-7-1-12.37-.75-18.21,1.78a8.08,8.08,0,0,0-2.31.28c-5,1.38-7.18,6.27-6.28,11.07a9.43,9.43,0,0,0,6.92,7c4.11,1.13,6.07-1.3,9.45-2.58,2.29-.88,4.92-.31,7.26,0a74.36,74.36,0,0,0,11.44,1c7.79-.09,15.49-1.72,23.27-2.11C252.42,65.49,255.38,65.47,258.34,65.5Z"/><path class="cls-2" d="M47.55,243c2.43-10.25,17.53-21.71,30.88-27.38S163,185.65,218.79,182.42s38,0,38,0L161.75,184,82.47,199.4,46.88,217.34,35.15,231l3.64,8.49Z"/><path class="cls-2" d="M120.07,379c3.64-18,3.26-40.63,11.75-48.92,7.38-7.21,23.64-12.77,28.29-13s-39.94-.59-39.94-.59Z"/><path class="cls-2" d="M204.41,378.37c3.43-20.63,6.69-44.88,12.56-51.15,7.46-8,21-12.56,28.49-13s-41.84-.2-41.84-.2Z"/><path class="cls-2" d="M298,380.33c2.41-20.43,2.12-46.77,9.67-53s23.27-10.74,30.76-11.15-41.85-.19-41.85-.19Z"/><path class="cls-2" d="M110.52,281.52c4.85,0,116.49-55.55,127.82-56.63s148.85,50.69,148.85,50.69L240.06,212.16,90.56,273.43l3.24,7Z"/><path class="cls-2" d="M46.88,217.34c5.93-14.56,45.3-61.49,168.27-62s195.77,16.18,206.56,20.5-22.11-11.33-22.11-11.33L346.74,151,261,141.83l-86.83,3.24-69,11.86L56.05,179.58,39.33,194.15l1.62,14Z"/><polygon class="cls-3" points="240.06 212.16 87.47 274.74 91.8 281.43 240.06 281.43 388.33 281.43 392.66 274.74 240.06 212.16"/><line class="cls-3" x1="101.64" y1="292.45" x2="96.13" y2="439.47"/><polyline class="cls-3" points="115.02 406.21 118.17 314.5 165.01 314.5"/><polyline class="cls-3" points="201.62 403.78 201.62 312.06 248.46 312.06"/><polyline class="cls-3" points="295.3 406.21 293.7 314.5 340.54 314.5"/><line class="cls-3" x1="382.29" y1="292.45" x2="388.2" y2="444.39"/><line class="cls-3" x1="364.19" y1="314.5" x2="368.91" y2="444.39"/><path class="cls-3" d="M46.09,216.11c-7.68-10.63-6.3-23.05,3.74-31.9s51.89-42.61,185.85-41.14,178,24.8,190.21,35.28,12.16,26.66,6.75,35.41"/><path class="cls-3" d="M42.59,245.81c-7.67-10.63-7.34-18.11-1.18-23.62,10-8.92,64.69-43.25,198.65-41.77"/><path class="cls-3" d="M437.53,245.81c7.68-10.63,7.35-18.11,1.18-23.62-10-8.92-64.68-43.25-198.65-41.77"/><line class="cls-3" x1="45.74" y1="241.28" x2="33.93" y2="439.47"/><line class="cls-3" x1="437.54" y1="238.72" x2="451.37" y2="437.11"/><line class="cls-3" x1="118.21" y1="191.23" x2="115.02" y2="243.15"/><line class="cls-3" x1="359.61" y1="179.1" x2="359.61" y2="154.56"/><polyline class="cls-3" points="201.22 140.52 201.22 66.91 270.9 64.55 274.2 143.99"/><path class="cls-3" d="M276.41,87.77c0-5.12,5.51-39,5.51-39l-90.14,2,3.54,24.4"/><path class="cls-3" d="M361.36,232.38c.4-2-1.57-41.33-1.57-41.33"/><line class="cls-3" x1="120.53" y1="153.51" x2="118.88" y2="179.69"/><path class="cls-3" d="M237.74,84.75c27.05,2.33,18.07,31.77-.34,30-10.39-1-15.66-8.41-15.69-15.69,0-8,7-14.35,15.65-14.35Z"/><line class="cls-3" x1="237.93" y1="49.61" x2="237.26" y2="21.56"/><path class="cls-3" d="M226.2,31.81c1.49,0,23.2-.81,23.2-.81"/></g></svg>