<svg xmlns="http://www.w3.org/2000/svg" viewBox="0 0 541.78 427.84"><defs><style>.cls-1{fill:#fff;}.cls-2{fill:gray;}.cls-3{fill:none;stroke:#000;stroke-miterlimit:10;stroke-width:6.53px;}</style></defs><title>kirchen</title><g id="Layer_1" data-name="Layer 1"><path class="cls-1" d="M483,343.09c1.3-16.86.36-33.47-1.38-50.27-.58-5.68-1.18-11.36-1.65-17.05,4.09-5.66,5.87-12.49,4-19.48a44.94,44.94,0,0,0-3.81-8.71l-.77-1.51c.09-1.41.2-2.83.34-4.24a9.4,9.4,0,0,0-1.73-6.64c1-3.18,2-6.35,3.12-9.49,3.52-10-2.14-25.38-12.15-29.87-17.85-8-36.1-14.88-55.1-19.62-8.95-2.24-18-4.05-27.15-5.42q-4.28-.63-8.57-1.2c-2.12-4.09-5.86-13.46-5.79-14A385.74,385.74,0,0,0,376.63,94c-.22-12.35-1.14-25.53-8.08-36.2a44.77,44.77,0,0,0-8.09-9.34,10.86,10.86,0,0,0-3-5.47,12.54,12.54,0,0,0-11.86-2.86,40.43,40.43,0,0,0-21.46-.66c-12.91,3.07-23.5,19.5-18.47,32.54.39,1,.77,2,1.08,3,.08.26.22,1,.36,1.62.06,1.11.12,2.34.11,2.84,0,.81-.27,1.85-.33,2.78-.44,2-.88,4-1.41,5.91s-1.05,3.66-1.61,5.49A46.14,46.14,0,0,1,306,108c-.12,11.78-.39,23.55-.59,35.32a12.11,12.11,0,0,1-8.91,11.27l.15,1.56c-53.16-2.83-106.88,6.8-157.78,21.46-13.2,3.8-26.39,7.78-39.08,13.06-17.47,7.27-40.14,17-45.8,36.92-2.22,7.84-2,16.58-2.5,24.68q-.69,11.75-1.37,23.5l-2.76,47.35q-3,52.44-6.1,104.87C40.4,441.79,54,455,67.66,454.4a29.83,29.83,0,0,0,7.7-1.34,46.92,46.92,0,0,0,12.11,5.21c11.37,3.07,23.65,2.29,35.3,2.3h35.82l144.25,0,144.24,0c8,0,15.55-.7,22.52-5.08,11.34-7.12,15.13-19.5,13.54-32.11s-3.44-25.24-5.23-37.86c1.06-5.08,1.29-10.56,1.94-15.3C481.1,361.25,482.25,352.19,483,343.09ZM307.23,80.78c.2-1,.36-1.61,0,0ZM452.77,407.52c0-.12,0-.24,0-.35C452.89,407.29,452.92,407.41,452.77,407.52Z"/><path class="cls-2" d="M49.16,294.13c6.76-20.2,11-61.78,32.89-74.26s62.29-29.46,62.68-29.59,93.49-17.61,93.49-17.61l10.71-.06,43.39-2.78,3.13-.8,1-14.48s-30.68,1.6-54.76,3.61-105.84,15.73-136.91,32.38-47.89,29.33-47.89,29.33Z"/><path class="cls-2" d="M106.48,398.26c12.55-42.6,6.71-81.93,30.81-112.39C160.53,256.5,292.22,249,292.22,249l-174.6,9.37-4.57,10Z"/><path class="cls-2" d="M307.44,86.9c2.45-14.2.37-21.49,6.52-30.69,5.46-8.16,42-14.19,42-14.19l-50.31,3.34Z"/><path class="cls-2" d="M309,140.72c.54-15.25.37-27.28,7.28-32.23C324.87,102.36,352.82,97,352.82,97l-48.53,2.84Z"/><path class="cls-2" d="M307.72,193c4.4-13,2.52-23.83,9.78-31.71,8.44-9.17,39-11.46,39-11.46l-48.79,1.62Z"/><path class="cls-3" d="M373.54,166.45c36.44.53,106.14,31.16,106.14,31.16v239"/><polyline class="cls-3" points="302.3 45.74 305.82 99.66 352.82 93.72"/><polyline class="cls-3" points="299.49 46.06 359.42 39.2 363.25 208.41"/><polyline class="cls-3" points="181.34 423.87 182.4 361.3 268.2 360.43"/><polyline class="cls-3" points="231.77 360.69 294.87 360.24 294.87 427.84"/><polyline class="cls-3" points="306.66 99.55 306.48 149.82 356.51 146.78"/><polyline class="cls-3" points="305.61 149.82 306.66 205.88 363.17 205.17"/><path class="cls-3" d="M334.2,19.07c0,1.12.6,23,.6,23"/><path class="cls-3" d="M321.47,32.4c.19,0,25.6-3.17,25.6-3.17"/><line class="cls-3" x1="373.54" y1="184.23" x2="384.1" y2="423.87"/><polyline class="cls-3" points="386.04 364.81 403.46 364.81 405.4 423.87"/><path class="cls-3" d="M381.29,290.19h17.6L403.46,358"/><path class="cls-3" d="M378.82,185.29c7.39-.36,15.84,2.81,15.84,2.81l4,97.16"/><line class="cls-3" x1="178.75" y1="193.71" x2="178" y2="246.02"/><polyline class="cls-3" points="178.88 218.99 211.53 217.85 211.53 187.51"/><path class="cls-3" d="M277.05,170.6v43.64l-31.29,1.85"/><line class="cls-3" x1="146.14" y1="202.73" x2="144.73" y2="247.53"/><path class="cls-3" d="M114.46,215.85c0,2.64-1.41,31.68-1.41,31.68"/><path class="cls-3" d="M79.38,263.91,81,224.34c49.88-32.51,117-49.24,164.75-48.7v40.45l-34.23,1.76"/><polyline class="cls-3" points="104.78 427.84 113.05 258.45 294.87 248.82 294.87 152.31"/><path class="cls-3" d="M293,155s-165.78.61-238.18,66.74l-16,206.09"/><polyline class="cls-3" points="359.79 37.14 374.42 63.49 375.54 168.06"/></g></svg>