<?xml version="1.0" encoding="utf-8"?>
<!-- Generator: Adobe Illustrator 23.0.3, SVG Export Plug-In . SVG Version: 6.00 Build 0)  -->
<svg version="1.1" id="Layer_1" xmlns="http://www.w3.org/2000/svg" xmlns:xlink="http://www.w3.org/1999/xlink" x="0px" y="0px"
	 viewBox="0 0 162.8 32.2" style="enable-background:new 0 0 162.8 32.2;" xml:space="preserve">
<style type="text/css">
	.st0{fill:none;stroke:#000000;stroke-width:2.6626;stroke-linecap:round;stroke-linejoin:round;stroke-miterlimit:10;}
</style>
<path class="st0" d="M2.7,29.4h10.1c0,0-0.2-10.6,0-12.3c6.6-4.5,13.6-5.2,16.7-5.2c0.1-2.5,0.1-7.4,0.1-7.4h7.7l-0.1,9.1
	c0,0,4.6,0.7,6.7,2.4v13.4h24.6l-0.2-13.8c-10.9-2.9,10.5-5.1,10.5-5.1V2.8h6.6v7.6c0,0,21.4,2.2,10.5,5.1v13.8h25.4v-1.6V9.1
	l6.3-4.7l5.7,4.9v10.1H144l6.2,2v7.9h9.9"/>
</svg>
