<?xml version="1.0" encoding="utf-8"?>
<!-- Generator: Adobe Illustrator 23.0.3, SVG Export Plug-In . SVG Version: 6.00 Build 0)  -->
<svg version="1.1" id="Layer_2" xmlns="http://www.w3.org/2000/svg" xmlns:xlink="http://www.w3.org/1999/xlink" x="0px" y="0px"
	 viewBox="0 0 200 200" style="enable-background:new 0 0 200 200;" xml:space="preserve">
<style type="text/css">
	.st0{fill:#31575E;stroke:#FFFFFF;stroke-width:8.7614;stroke-miterlimit:10;}
	.st1{fill:#31575E;}
	.st2{fill:#0E8F89;stroke:#FFFFFF;stroke-width:8.7614;stroke-miterlimit:10;}
	.st3{fill:#F4AC11;stroke:#FFFFFF;stroke-width:8.7614;stroke-miterlimit:10;}
	.st4{fill:#900D0D;}
	.st5{fill:#CF1B1B;}
	.st6{fill:#F3E8CB;}
	.st7{fill:#FBAFAF;}
	.st8{fill:#F2C6B4;}
	.st9{fill:#D13751;}
	.st10{fill:#F4AC11;}
	.st11{fill:#0E8F89;}
</style>
<path class="st0" d="M127.28,90.08c-7.36-4.25-15.29-6.59-23.23-7.19c-0.6,1.24-1.23,2.48-1.93,3.69
	c-10.87,18.83-31.24,28.76-51.56,27.23c-12.3,25.56-3,56.68,21.97,71.09c26.19,15.12,59.67,6.15,74.79-20.04
	S153.47,105.19,127.28,90.08z"/>
<path class="st1" d="M82.15,106.65c7.36-4.25,13.35-9.94,17.84-16.52c-0.78-1.14-1.53-2.31-2.23-3.52
	c-10.87-18.83-9.29-41.43,2.2-58.27C83.97,4.91,52.37-2.59,27.4,11.82C1.22,26.94-7.75,60.43,7.36,86.61S55.97,121.77,82.15,106.65z
	"/>
<path class="st1" d="M90.29,59.25c0,8.49,1.93,16.53,5.39,23.71c1.38-0.1,2.76-0.17,4.17-0.17c21.74,0,40.53,12.68,49.36,31.04
	c28.29-2.13,50.58-25.74,50.58-54.58c0-30.24-24.51-54.75-54.75-54.75S90.29,29.01,90.29,59.25z"/>
<circle class="st1" cx="318.43" cy="129.74" r="49.99"/>
<path class="st2" d="M90.35,59.29c0,8.49,1.93,16.53,5.39,23.71c1.38-0.1,2.76-0.17,4.17-0.17c21.74,0,40.53,12.68,49.36,31.04
	c28.29-2.13,50.58-25.74,50.58-54.58c0-30.24-24.51-54.75-54.75-54.75S90.35,29.06,90.35,59.29z"/>
<path class="st3" d="M82.09,106.62c7.36-4.25,13.35-9.94,17.84-16.52c-0.78-1.14-1.53-2.31-2.23-3.52
	c-10.87-18.83-9.29-41.43,2.2-58.27C83.91,4.88,52.31-2.63,27.34,11.79C1.16,26.91-7.82,60.39,7.3,86.58S55.91,121.74,82.09,106.62z
	"/>
<path class="st4" d="M714.68,469.64c-62.83,0-83.06-43.42-85.48-83.87c0,0,33.68-9.74,47.46-35.05c16.99-14.83,26.97-33.7,19.28-60
	c-6.82-23.35,9.42-49.74,33.03-58.91c-7.09,26.25,4.94,39.98,13.62,50.15c17.08,20.01,30.87,40.58,30.87,64.85
	c0,0-7.81,29.94-11.45,48.14C757.15,419.25,752.3,468.68,714.68,469.64"/>
<path class="st5" d="M769.07,334.16c21.03-19.96,13.71-68.66,9.93-79.44c52.85,47.46,40.45,119.2,38.02,138.62
	c-5.26,27.91-16.98,75.43-88.98,75.43c0,0,1.66-36.78,6.24-69.88C736.51,382.76,739.94,362.95,769.07,334.16z"/>
<path d="M1423.74,576.77c-62.83,0-83.06-43.42-85.48-83.87c-1.36-22.71,14.02-88.45,1.08-122.97
	c31.28,16.18,47.63,42.88,49.62,76.04c8.09-23.19,24.35-36.01,12.27-67.42c-13.48-35.06,11.44-67.96,35.06-77.12
	c-20.07,32.36,2.92,58.19,11.6,68.36c17.08,20.01,30.87,40.58,30.87,64.85c21.03-19.96,23.2-62.02,19.43-72.81
	c52.85,47.46,35.06,148.85,30.21,163.42C1523.52,539.82,1495.74,576.77,1423.74,576.77z"/>
<path d="M1703.38,606.84c-106.79-20.49-91.15-119.19-88.99-141.84c2.16-22.65,29.66-64.18,16.72-98.7
	c31.28,16.18,30.74,48.54,30.74,57.71c21.03-13.48,23.19-66.34,23.73-91.69c0.54-25.35,27.74-53.39,51.35-62.56
	c-20.07,32.36,5.81,62.56,19.84,84.67s43.69,32.9,48.54,98.16c21.03-19.96,16.18-62.56,12.4-73.35
	c52.85,47.46,36.13,124.58,31.28,139.15C1844.14,532.95,1810.16,621.4,1703.38,606.84z"/>
<path class="st6" d="M925.45,539.28c-62.83,0-83.06-43.42-85.48-83.87c0,0,33.68-9.74,47.46-35.05c8.09-23.19,26.97-33.7,19.28-60
	c-6.82-23.35,9.42-49.74,33.03-58.91c-7.09,26.25,4.94,39.98,13.62,50.15c17.08,20.01,30.87,40.58,30.87,64.85
	c0,0-7.81,29.94-11.45,48.14C967.91,488.89,963.07,538.32,925.45,539.28z"/>
<path class="st7" d="M1172.14,558.56c-62.83,0-83.06-43.42-85.48-83.87c-1.36-22.71,14.02-88.45,1.08-122.97
	c31.28,16.18,47.63,42.88,49.62,76.04c8.09-23.19,19.73-34.6,12.27-67.42c-5.39-23.72,9.42-49.74,33.03-58.91
	c-7.09,26.25,4.94,39.98,13.62,50.15c17.08,20.01,30.87,40.58,30.87,64.85c21.03-19.96,23.2-62.02,19.43-72.81
	c52.85,47.46,35.06,148.85,30.21,163.42C1271.92,521.61,1244.14,558.56,1172.14,558.56z"/>
<path class="st6" d="M1172.14,558.56c-62.83,0-83.06-43.42-85.48-83.87c0,0,47.46-15.65,50.7-46.92
	c8.09-23.19,19.73-34.6,12.27-67.42c-5.39-23.72,9.42-49.74,33.03-58.91c-7.09,26.25,4.94,39.98,13.62,50.15
	c17.08,20.01,30.87,40.58,30.87,64.85c0,0-4.03,49.22-7.67,67.42C1214.61,508.17,1209.76,557.6,1172.14,558.56z"/>
<path class="st8" d="M1137.35,427.77c-1.99-33.16-18.34-59.87-49.62-76.04c12.94,34.52-2.44,100.25-1.08,122.97
	c2.43,40.45,22.65,83.87,85.48,83.87c44.22,0,41.53-58.51,0-60.4C1131.83,496.33,1138.43,459.31,1137.35,427.77z"/>
<path class="st7" d="M980.45,397.16c21.03-19.96,13.09-62.02,9.31-72.81c52.85,47.46,40.45,119.2,38.02,138.62
	c-5.26,27.91-16.98,75.43-88.98,75.43c0,0-4.39-36.86,0.19-69.97C941.23,452.32,951.33,425.96,980.45,397.16z"/>
<path class="st8" d="M904.42,405.53c-1.99-33.16-32.09-56.91-63.37-73.09c12.94,34.52-2.44,100.25-1.08,122.97
	c2.43,40.45,22.65,83.87,85.48,83.87c72.4,0,50.16-67.41,0-60.4C908.09,481.31,905.49,437.07,904.42,405.53z"/>
<path class="st9" d="M718.1,469.64c48.74,0,77.12-13.59,89.98-45.38c-76.93,26.94-94.28,0.94-106.75-17.7
	c-9.75-14.56-6.6-39.13-7.68-70.67c-0.26-4.37-1.03-8.57-2.2-12.62v0c-0.95-3.27-2.18-6.43-3.66-9.5c-0.04-0.08-0.08-0.17-0.12-0.25
	c-0.33-0.68-0.68-1.35-1.03-2.02c-0.07-0.13-0.14-0.27-0.21-0.4c-0.35-0.65-0.71-1.3-1.09-1.95c-0.07-0.13-0.15-0.26-0.23-0.39
	c-0.39-0.66-0.78-1.31-1.19-1.96c-0.04-0.07-0.09-0.14-0.13-0.21c-1.83-2.88-3.88-5.66-6.12-8.35c-0.03-0.03-0.05-0.07-0.08-0.1
	c-0.49-0.59-1-1.18-1.51-1.76c-0.12-0.14-0.24-0.27-0.36-0.41c-0.48-0.54-0.98-1.09-1.48-1.62c-0.15-0.16-0.31-0.33-0.46-0.49
	c-0.49-0.52-0.99-1.04-1.5-1.56c-0.16-0.16-0.32-0.32-0.48-0.48c-0.52-0.52-1.04-1.04-1.58-1.56c-0.11-0.11-0.23-0.22-0.35-0.33
	c-1.84-1.76-3.76-3.47-5.74-5.14c-0.08-0.07-0.16-0.13-0.23-0.2c-0.53-0.45-1.07-0.88-1.61-1.32c-0.25-0.2-0.49-0.4-0.74-0.6
	c-0.5-0.4-1-0.79-1.51-1.19c-0.3-0.23-0.6-0.47-0.9-0.7c-0.48-0.37-0.97-0.74-1.46-1.1c-0.33-0.25-0.67-0.5-1-0.74
	c-0.48-0.35-0.95-0.7-1.44-1.04c-0.36-0.26-0.72-0.51-1.09-0.77c-0.47-0.33-0.94-0.66-1.41-0.98c-0.4-0.28-0.81-0.55-1.22-0.83
	c-0.49-0.33-0.99-0.67-1.49-1c-0.76-0.5-1.52-1-2.29-1.49c-0.39-0.25-0.78-0.49-1.18-0.74c-0.49-0.31-0.99-0.62-1.48-0.93
	c-0.4-0.25-0.81-0.49-1.21-0.74c-0.49-0.3-0.99-0.6-1.49-0.9c-0.4-0.24-0.8-0.47-1.2-0.71c-0.51-0.3-1.03-0.6-1.54-0.9
	c-0.39-0.22-0.77-0.45-1.16-0.67c-0.54-0.31-1.09-0.61-1.63-0.92c-0.36-0.2-0.73-0.4-1.09-0.6c-0.61-0.33-1.22-0.66-1.83-0.99
	c-0.3-0.16-0.61-0.33-0.91-0.49c-0.91-0.49-1.83-0.97-2.74-1.44c2.43,6.47,3.86,14.04,4.59,22.22c0.12,1.36,0.22,2.74,0.31,4.14
	c0.3,4.88,0.37,9.94,0.28,15.08c-0.02,1.47-0.06,2.94-0.11,4.43c-0.12,3.7-0.32,7.43-0.57,11.15c-0.2,2.91-0.43,5.82-0.68,8.71
	c-0.07,0.8-0.14,1.6-0.21,2.4c-0.07,0.73-0.14,1.47-0.2,2.2c-0.55,5.84-1.18,11.56-1.78,16.99c-0.08,0.68-0.15,1.36-0.23,2.03
	c-0.29,2.61-0.57,5.15-0.84,7.61c-0.08,0.76-0.16,1.51-0.24,2.25c-0.12,1.18-0.24,2.33-0.36,3.46c-0.06,0.59-0.12,1.18-0.17,1.76
	c-0.11,1.11-0.21,2.19-0.3,3.25c-0.05,0.6-0.1,1.2-0.15,1.78c-0.08,1.04-0.16,2.05-0.22,3.03c-0.04,0.54-0.07,1.07-0.1,1.59
	c-0.14,2.44-0.2,4.67-0.17,6.65c0.01,0.79,0.04,1.54,0.08,2.25c0.04,0.63,0.08,1.26,0.13,1.9c0.09,1.27,0.2,2.54,0.33,3.8
	c0.32,3.17,0.76,6.35,1.33,9.51c2.04,11.38,5.74,22.54,11.64,32.44c0.33,0.55,0.66,1.1,1,1.64c2.05,3.25,4.35,6.36,6.91,9.28
	c1.28,1.46,2.63,2.88,4.05,4.24c6.15,5.91,13.62,10.87,22.6,14.49c2.07,0.83,4.23,1.6,6.46,2.28c2.24,0.69,4.56,1.3,6.96,1.83
	c0.8,0.18,1.61,0.34,2.44,0.5c6.57,1.27,13.76,1.94,21.61,1.94H718.1z"/>
<circle class="st10" cx="277.16" cy="58.19" r="49.99"/>
<circle class="st11" cx="359.7" cy="58.19" r="49.99"/>
</svg>
