<?xml version="1.0" encoding="utf-8"?>
<!-- Generator: Adobe Illustrator 23.0.3, SVG Export Plug-In . SVG Version: 6.00 Build 0)  -->
<svg version="1.1" id="Layer_1" xmlns="http://www.w3.org/2000/svg" xmlns:xlink="http://www.w3.org/1999/xlink" x="0px" y="0px"
	 viewBox="0 0 200 200" style="enable-background:new 0 0 200 200;" xml:space="preserve">
<style type="text/css">
	.st0{fill:#0E8F89;stroke:#FFFFFF;stroke-width:8.7614;stroke-miterlimit:10;}
	.st1{fill:#31575E;stroke:#FFFFFF;stroke-width:8.7614;stroke-miterlimit:10;}
	.st2{fill:#F4AC11;stroke:#FFFFFF;stroke-width:8.7614;stroke-miterlimit:10;}
</style>
<path class="st0" d="M90.3,63.3c0,8.5,1.9,16.5,5.4,23.7c1.4-0.1,2.8-0.2,4.2-0.2c21.7,0,40.5,12.7,49.4,31
	c28.3-2.1,50.6-25.7,50.6-54.6c0-30.2-24.5-54.8-54.8-54.8S90.3,33.1,90.3,63.3z"/>
<path class="st1" d="M127.3,94.1c-7.4-4.3-15.3-6.6-23.2-7.2c-0.6,1.2-1.2,2.5-1.9,3.7c-10.9,18.8-31.2,28.8-51.6,27.2
	c-12.3,25.6-3,56.7,22,71.1c26.2,15.1,59.7,6.1,74.8-20S153.5,109.2,127.3,94.1z"/>
<path class="st2" d="M82.1,110.6c7.4-4.3,13.3-9.9,17.8-16.5c-0.8-1.1-1.5-2.3-2.2-3.5c-10.9-18.8-9.3-41.4,2.2-58.3
	C83.9,8.9,52.3,1.4,27.3,15.8C1.2,30.9-7.8,64.4,7.3,90.6S55.9,125.7,82.1,110.6z"/>
</svg>
