<?xml version="1.0" encoding="utf-8"?>
<!-- Generator: Adobe Illustrator 23.0.3, SVG Export Plug-In . SVG Version: 6.00 Build 0)  -->
<svg version="1.1" id="Layer_1" xmlns="http://www.w3.org/2000/svg" xmlns:xlink="http://www.w3.org/1999/xlink" x="0px" y="0px"
	 viewBox="0 0 512 512" style="enable-background:new 0 0 512 512;" xml:space="preserve">
<style type="text/css">
	.st0{fill:#0E8F89;}
	.st1{fill:#FFFFFF;}
	.st2{fill:#31575E;}
	.st3{fill:#F4AC11;}
</style>
<g>
	<path class="st0" d="M232.3,160c0,20.9,4.7,40.6,13.2,58.4c3.4-0.2,6.9-0.5,10.3-0.5c53.2,0,99.4,31.3,121.2,76.3
		c69.4-5.2,124.1-63.3,124.1-134.4c0-74.4-60.1-134.9-134.4-134.9S232.3,85.6,232.3,160z"/>
	<path class="st1" d="M370.6,305.5l-3.2-6.6c-20.7-42.7-64.5-70.3-111.5-70.3c-3.1,0-6.2,0.2-9.5,0.5l-7.3,0.5l-3.2-6.6
		c-9.5-19.6-14.3-40.9-14.3-63.1c0-80.5,65.1-146,145.2-146S512,79.4,512,159.7c0,37-13.8,72.3-38.9,99.3
		c-25,26.9-58.8,43.2-95.2,45.9L370.6,305.5z M255.9,207c27.8,0,54.8,7.9,78.2,23c20.6,13.2,37.5,31.3,49.2,52.7
		c60.7-8,107.2-60.7,107.2-123c0-68.5-55.5-124.2-123.7-124.2S243.1,91.4,243.1,160c0,16.5,3.1,32.3,9.3,47.1
		C253.5,207.1,254.7,207,255.9,207z"/>
</g>
<g>
	<path class="st2" d="M323.1,235.8c-18.2-10.6-37.5-16.3-56.9-17.7c-1.5,3-2.9,6.2-4.7,9.1c-26.7,46.3-76.5,70.9-126.6,67
		c-30.2,63-7.4,139.6,54,175.1c64.3,37.2,146.5,15,183.5-49.2S387.4,273,323.1,235.8z"/>
	<path class="st1" d="M255.8,498c-24.6,0-49.5-6.3-72.3-19.4c-31.9-18.5-55.4-48.1-66.2-83.4c-10.7-35.1-7.9-72.7,7.9-105.7l3.2-6.7
		l7.3,0.6c47.7,3.8,92.3-19.9,116.5-61.6c1.1-1.9,2.1-4,3.2-6.2c0.4-0.8,0.8-1.6,1.1-2.3l3.2-6.5l7.2,0.5
		c21.9,1.7,42.5,8.1,61.5,19.1c33.6,19.4,57.6,50.9,67.7,88.6c10,37.6,4.9,76.8-14.4,110.4C354.9,472,306,498,255.8,498z
		 M141.7,305.3c-23.3,56.8-1.1,123.6,52.5,154.6c59,34.1,134.8,13.8,168.8-45.3c16.5-28.6,20.8-62,12.3-94
		c-8.6-32.1-29-58.9-57.7-75.5l0,0c-14-8.2-29.2-13.4-45.2-15.6c-0.5,1-1.1,2-1.7,3c-14,24.2-34.3,43.7-58.9,56.5
		C190.2,300.4,166,305.9,141.7,305.3z"/>
</g>
<g>
	<path class="st3" d="M212.2,276.4c18.2-10.6,32.6-24.4,43.7-40.6c-2-2.7-3.7-5.7-5.4-8.6c-26.7-46.3-22.8-101.9,5.4-143.6
		C216.6,26,139.1,7.5,77.8,43c-64,37.2-86.1,119.7-49.1,184.2S147.9,313.6,212.2,276.4z"/>
	<path class="st1" d="M145.2,305.3c-50.2,0-99-26.1-125.8-72.7C-20.6,163,3.2,73.8,72.4,33.7c31.9-18.5,69.3-24.1,105.1-15.8
		c35.7,8.2,66.7,29.4,87.2,59.6l4.1,6.1l-4.1,6.1c-27.1,39.9-29,90.5-5,132.1c1.6,2.8,3.2,5.4,4.8,7.7l4.5,6.1l-4.3,6.3
		c-12.2,18-28.1,32.8-47.2,43.9l0,0C194.7,299,169.8,305.3,145.2,305.3z M144.6,35.9c-21,0-42.2,5.3-61.5,16.5
		C24.2,86.5,4,162.6,38,221.8c34,59.2,109.7,79.5,168.8,45.3c14.2-8.3,26.3-18.9,36-31.6c-0.6-0.9-1.1-1.9-1.7-2.8
		c-14-24.2-20.7-51.7-19.4-79.5c1.1-24.5,8.4-48.2,21-69.1C218.9,52.9,182.1,35.9,144.6,35.9z"/>
</g>
</svg>
