<?xml version="1.0" encoding="utf-8"?>
<!-- Generator: Adobe Illustrator 23.0.3, SVG Export Plug-In . SVG Version: 6.00 Build 0)  -->
<svg version="1.1" xmlns="http://www.w3.org/2000/svg" xmlns:xlink="http://www.w3.org/1999/xlink" x="0px" y="0px"
	 viewBox="0 0 50 50" style="enable-background:new 0 0 50 50;" xml:space="preserve">
<style type="text/css">
	.st0{fill:none;stroke:#2B303A;stroke-width:4;stroke-linecap:round;stroke-linejoin:round;stroke-miterlimit:10;}
</style>
<g id="Layer_1">
</g>
<g id="Layer_2">
	<path class="st0" d="M-117.2,42.8c0,0-0.33-14.61-0.06-16.88c9.03-6.18,18.76-7.11,22.94-7.12c0.13-3.38,0.13-10.16,0.13-10.16
		h10.65l-0.13,12.5c0,0,6.32,0.99,9.15,3.3"/>
	<g>
		<path class="st0" d="M-155.58,15.19c-0.45,2.66,0.34,5.49,2.39,7.54c3.36,3.36,8.82,3.36,12.18,0c3.36-3.36,3.36-8.82,0-12.18
			c-2.05-2.05-4.88-2.85-7.54-2.39"/>
		<path class="st0" d="M-172.81,16.14c-0.45,2.66,0.34,5.49,2.39,7.54c3.36,3.36,8.82,3.36,12.18,0c3.36-3.36,3.36-8.82,0-12.18
			c-2.05-2.05-4.88-2.85-7.54-2.39"/>
		<path class="st0" d="M-163.66,30.54c-0.45,2.66,0.34,5.49,2.39,7.54c3.36,3.36,8.82,3.36,12.18,0c3.36-3.36,3.36-8.82,0-12.18
			c-2.05-2.05-4.88-2.85-7.54-2.39"/>
	</g>
	<polyline class="st0" points="-58.41,40.68 -58.41,15.11 -49.8,8.64 -41.91,15.32 -41.91,29.27 -21.36,29.27 -12.94,34.13 	"/>
	<path class="st0" d="M43.97,24.96c14.98-4.04-14.41-7.08-14.41-7.08V7.47h-9.11v10.42c0,0-29.4,3.03-14.41,7.08l0.21,19.01"/>
</g>
</svg>
